<svg width="40" height="40" viewBox="0 0 512 512" version="1.1" xmlns="http://www.w3.org/2000/svg"><path d="M503.467,0h-51.2c-4.71,0-8.533,3.823-8.533,8.533v18.338C349.124,41.839,262.69,82.569,193.109,145.067h-48.043c-4.71,0-8.533,3.823-8.533,8.533v48.606C78.848,270.131,41.054,353.425,26.854,443.733H8.533c-4.71,0-8.533,3.823-8.533,8.533v51.2C0,508.177,3.823,512,8.533,512h51.2c4.71,0,8.533-3.823,8.533-8.533v-51.2c0-4.71-3.823-8.533-8.533-8.533h-15.59c14.02-86.144,50.278-165.547,105.327-230.4h46.797c4.71,0,8.533-3.823,8.533-8.533v-47.283C271.215,97.954,353.562,58.931,443.733,44.16v15.573c0,4.71,3.823,8.533,8.533,8.533h51.2c4.71,0,8.533-3.823,8.533-8.533v-51.2C512,3.823,508.177,0,503.467,0z M51.2,460.8v34.133H17.067V460.8H51.2z M187.733,196.267H153.6v-34.133h34.133V196.267zM494.933,51.2H460.8V17.067h34.133V51.2z"/></svg>
